# xmcd
#
# Track frame offsets:
#	150
#	10203
#	22671
#	31472
#	43265
#	53046
#	62925
#	75289
#	86559
#	96213
#	107382
#	117525
#	127617
#	137756
#
# Disc length: 1937 seconds
#
# Revision: 0
# Processed by: cddbd v1.5.1PL2 Copyright (c) Steve Scherf et al.
# Submitted via: dBpowerAMP V4.0
#
DISCID=a6078f0e
DTITLE=Johnny Cash - The Original | Best of [CD2]
DYEAR=2005
DGENRE=Country
TTITLE0=Get Rhythm
TTITLE1=Folsom Prison Blues
TTITLE2=Katy Too
TTITLE3=Thanks A Lot
TTITLE4=Rack Island Line
TTITLE5=Ballad Of A Teenage Queen
TTITLE6=Give My Love To Rose
TTITLE7=Oh, Lonesome Me
TTITLE8=Just About Time
TTITLE9=Don't Make Me Go
TTITLE10=The Ways Of A Woman
TTITLE11=Goodbye Little Darlin'
TTITLE12=Straight A's In Love
TTITLE13=Come In Stanger
EXTD=
EXTT0=
EXTT1=
EXTT2=
EXTT3=
EXTT4=
EXTT5=
EXTT6=
EXTT7=
EXTT8=
EXTT9=
EXTT10=
EXTT11=
EXTT12=
EXTT13=
PLAYORDER=
